<svg id="Layer_1" data-name="Layer 1" xmlns="http://www.w3.org/2000/svg" viewBox="0 0 356.16 400"><defs><style>.cls-1,.cls-2{fill:#f15a24;}.cls-1{fill-rule:evenodd;}</style></defs><title>logo-asik</title><polygon class="cls-1" points="187.6 0.01 187.6 345.37 178.08 350.52 106.04 311.45 106.04 247.34 62.54 270.92 62.54 337.33 178.08 400 231.1 371.25 231.1 73.09 312.66 117.32 312.66 149.17 356.16 125.59 356.16 91.43 187.6 0.01"/><path class="cls-1" d="M907.87,359.41,765.49,436.62v212L809,672.21V604.79l81.56-44.24v84.77l43.5,23.57V345.19ZM890.55,511.06,809,555.29V462.51l81.56-44.23Z" transform="translate(-765.49 -345.19)"/><polygon class="cls-1" points="106.04 105.04 62.54 128.65 62.54 178.15 106.04 154.54 106.04 105.04"/><polygon class="cls-1" points="293.63 128.65 250.13 105.04 250.13 154.54 293.63 178.15 293.63 128.65"/><polygon class="cls-1" points="356.15 232.29 322.07 250.79 356.15 269.28 356.15 303.38 342.03 311.09 341.27 311.51 312.65 327.02 312.65 295.16 293.62 284.84 293.62 337.33 250.12 360.94 250.12 176.2 293.62 199.79 293.62 216.72 312.65 206.41 312.65 170.83 356.15 147.25 356.15 232.29"/><polyline class="cls-2" points="341.27 311.51 342.03 311.09 356.15 303.38"/></svg>